#N canvas 0 0 500 500 10;
#X obj 100 250 antescofo~ @inlets KL @outlets ANTEIOI;
#X obj 100 200 print [ANTESCOFO LOG];
#X obj 100 100 message incomingosc 1;
#X obj 100 120 message incomingoscport 5678;
#X obj 100 140 message ascographconf localhost 9999;
#X obj 100 160 message start;
#X connect 1 0 2 0;
#X obj 290 100 netreceive 10000 1;
#X msg 290 80 ;
#X obj 290 160 route /synth/play /synth/stop;
#X obj 290 200 unpack f f;
#X obj 290 230 dac~;
#X obj 370 200 message 0;
#X obj 290 260 mtof;
#X obj 290 290 osc~;
#X obj 330 260 *~;
#X obj 330 290 *~;
#X connect 7 0 9 0;
#X connect 9 0 10 0;
#X connect 10 0 13 0;
#X connect 13 0 14 0;
#X connect 14 0 16 0;
#X connect 16 0 17 0;
#X connect 17 0 11 0;
#X connect 17 0 11 1;
#X obj 290 400 comment -- S Y N T H --;
#X obj 290 420 comment OSC /synth/play [freq] [vol] triggers synth;
#X obj 290 440 comment OSC /synth/stop [any] stops synth;
#X obj 290 320 line~ 20 5;
#X connect 10 1 12 0;
#X connect 12 0 14 1;
#X connect 9 1 18 0;
#X connect 18 0 12 0;
#X obj 290 360 comment -- OSC SYNTH CONTROL --;
#X obj 370 230 loadbang;
#X connect 24 0 9 1;
#X connect 3 0 1 0;
#X connect 4 0 1 0;
#X connect 5 0 1 0;
#X connect 6 0 1 0;
#X obj 290 340 *~ 0;
#X connect 23 0 26 0;
#X connect 26 0 14 1;
#X connect 15 0 16 0;
#X connect 16 0 26 0;
#X obj 290 380 comment - R E C E I V E -;
#X obj 100 270 message read simple_demo_score.asco.txt;
#X obj 100 300 message start;
#X connect 27 0 1 0;
#X connect 28 0 1 0;
#X obj 290 460 comment The Antescofo object is sending control actions (OSC) to this PD patch.
#X obj 290 480 comment The netreceive object is configured to listen on port 10000.;
#X obj 290 500 comment This patch then routes /synth/play to start the osc~.;
#X obj 290 520 comment This is basic PD synthesis - replace with more complex audio if needed.;
#X obj 100 180 message calibrate;
#X connect 29 0 1 0;
#X obj 100 80 comment - A N T E S C O F O -;
#X obj 100 60 comment This section configures the Antescofo external.;
#X obj 100 40 comment Press these buttons once to configure ports.;
#X obj 100 230 message load simple_demo_score.asco.txt;
#X connect 33 0 1 0;
#X obj 100 320 message stop;
#X connect 34 0 1 0;
#X obj 230 200 message 0;
#X connect 9 1 35 0;
#X connect 35 0 16 1;
#X connect 10 0 16 0;
#X obj 200 320 oscparse;
#X connect 7 0 36 0;
#X obj 200 340 print [OSC MESSAGE];
#X connect 36 0 37 0;
#X obj 100 210 comment - C O N T R O L S -;